# xmcd
#
# Track frame offsets: 
#        150
#        11691
#        25859
#        43502
#        59745
#        69621
#        81974
#        94337
#        105429
#        120370
#        138049
#        153131
#
# Disc length: 2276 seconds
#
# Revision: 0
# Processed by: cddbd v1.5.2PL0 Copyright (c) Steve Scherf et al.
# Submitted via: ExactAudioCopy v1.0b4
#
DISCID=9208e20c
DTITLE=Ricky Nye and The Paris Blues Band - Jump Steady
DYEAR=2012
DGENRE=Blues
TTITLE0=Rockin' Roller Coaster
TTITLE1=Mean Ol' Frisco
TTITLE2=But I Forgive You
TTITLE3=New Orleans Is Murder
TTITLE4=I Ain't Crazy
TTITLE5=Pan American Boogie
TTITLE6=Jump Steady Blues
TTITLE7=Buggy Ride
TTITLE8=Boogie Woogie Country Girl
TTITLE9=Eyesight To The Blind
TTITLE10=Honey Dripper Blues
TTITLE11=Sittin' On Top Of The World
EXTD=
EXTT0=
EXTT1=
EXTT2=
EXTT3=
EXTT4=
EXTT5=
EXTT6=
EXTT7=
EXTT8=
EXTT9=
EXTT10=
EXTT11=
PLAYORDER=
